Coordinates
version=1
nRows=41
nColumns=38
inDegrees=no

Units are S.I. units (second, meters, Newtons, ...)
If the header above contains a line with 'inDegrees', this indicates whether rotational values are in degrees (yes) or radians (no).

endheader
time	pelvis_tilt	pelvis_list	pelvis_rotation	pelvis_tx	pelvis_ty	pelvis_tz	hip_flexion_r	hip_adduction_r	hip_rotation_r	knee_angle_r	ankle_angle_r	subtalar_angle_r	mtp_angle_r	hip_flexion_l	hip_adduction_l	hip_rotation_l	knee_angle_l	ankle_angle_l	subtalar_angle_l	mtp_angle_l	lumbar_extension	lumbar_bending	lumbar_rotation	arm_flex_r	arm_add_r	arm_rot_r	elbow_flex_r	pro_sup_r	wrist_flex_r	wrist_dev_r	arm_flex_l	arm_add_l	arm_rot_l	elbow_flex_l	pro_sup_l	wrist_flex_l	wrist_dev_l
0.43	2.96363	1.34884	-1.27565	0.743761	0.11347	1.06435	0.0979051	0.0710521	0.0404777	0.637749	-0.261516	0	0	-0.198127	-0.285501	-0.338404	1.1411	-0.5028	0	0	-0.415204	0.174275	0.0398391	0.34476	-0.757357	1.2406	1.13215	0.391254	0	0	-0.0521356	-0.393616	0.289261	0.856557	1.10101	0	0
0.44	2.98844	1.34197	-1.30007	0.743431	0.123648	1.06713	0.0737542	0.0671151	0.032432	0.628847	-0.262502	0	0	-0.177602	-0.286951	-0.333297	1.17713	-0.473365	0	0	-0.426883	0.170074	0.0419616	0.351613	-0.758051	1.24616	1.13253	0.384748	0	0	-0.0460889	-0.395158	0.29263	0.85691	1.09843	0	0
0.45	3.01152	1.33468	-1.32356	0.743082	0.133662	1.07	0.0484735	0.0634283	0.0259987	0.618051	-0.264227	0	0	-0.15858	-0.287441	-0.331186	1.20681	-0.446762	0	0	-0.439303	0.16581	0.0450612	0.357857	-0.759484	1.24998	1.13362	0.378915	0	0	-0.0393549	-0.396296	0.296472	0.857037	1.09516	0	0
0.46	3.03327	1.32741	-1.34651	0.742719	0.143577	1.07291	0.0227127	0.0593156	0.0205131	0.607131	-0.265336	0	0	-0.140472	-0.286579	-0.330089	1.22924	-0.425083	0	0	-0.451869	0.161269	0.0489794	0.363281	-0.761355	1.25219	1.13501	0.374996	0	0	-0.0320944	-0.396946	0.300646	0.8567	1.09181	0	0
0.47	3.05452	1.32073	-1.36956	0.742378	0.153446	1.07577	-0.00278536	0.0543081	0.0157875	0.595915	-0.266414	0	0	-0.122503	-0.284219	-0.32914	1.24475	-0.406076	0	0	-0.463738	0.156134	0.0533401	0.36829	-0.763139	1.25393	1.13594	0.37143	0	0	-0.02444	-0.397432	0.305617	0.855766	1.08807	0	0
0.48	3.07611	1.3149	-1.3932	0.742039	0.163327	1.07852	-0.0277351	0.0484897	0.010545	0.584418	-0.266622	0	0	-0.104642	-0.280272	-0.327959	1.25381	-0.388034	0	0	-0.474193	0.150215	0.0576898	0.372613	-0.764071	1.25537	1.13541	0.367826	0	0	-0.0166134	-0.397776	0.311215	0.854141	1.08461	0	0
0.49	3.09765	1.30984	-1.41723	0.7417	0.173206	1.08118	-0.0515927	0.0419244	0.00316935	0.572937	-0.267263	0	0	-0.0872807	-0.274885	-0.327051	1.25681	-0.369895	0	0	-0.483484	0.143668	0.0621678	0.376562	-0.764542	1.25661	1.13402	0.364516	0	0	-0.00866619	-0.397939	0.317292	0.852053	1.08121	0	0
0.5	3.11861	1.30553	-1.4421	0.741491	0.182933	1.08368	-0.0731361	0.0347398	-0.00466645	0.562697	-0.269001	0	0	-0.0707334	-0.26851	-0.328088	1.25405	-0.352186	0	0	-0.492262	0.136377	0.0676062	0.380572	-0.765145	1.25736	1.1326	0.362094	0	0	-0.000596129	-0.39778	0.323052	0.849958	1.07873	0	0
0.51	3.13886	1.30255	-1.46566	0.74119	0.192666	1.08595	-0.0923092	0.0274722	-0.0144343	0.553576	-0.2707	0	0	-0.0535132	-0.261316	-0.32858	1.24613	-0.336274	0	0	-0.499093	0.129153	0.0720553	0.384084	-0.76498	1.2578	1.13022	0.360824	0	0	0.00695648	-0.397106	0.327813	0.847232	1.07695	0	0
0.52	-3.12437	1.29989	-1.48836	0.740823	0.202365	1.08803	-0.110704	0.0199136	-0.0265427	0.544292	-0.273856	0	0	-0.0369083	-0.253343	-0.328892	1.23342	-0.317887	0	0	-0.505324	0.121999	0.0757147	0.386958	-0.764645	1.2571	1.1279	0.359366	0	0	0.0142686	-0.397177	0.3337	0.845081	1.0731	0	0
0.53	-3.10528	1.29843	-1.51052	0.74053	0.212064	1.08983	-0.126809	0.0122963	-0.0395695	0.537113	-0.275183	0	0	-0.0200764	-0.245032	-0.329821	1.21586	-0.306314	0	0	-0.509894	0.114633	0.0793929	0.389493	-0.763742	1.25642	1.12492	0.358538	0	0	0.0212654	-0.396935	0.338507	0.84244	1.07054	0	0
0.54	-3.08704	1.2973	-1.53198	0.740225	0.221695	1.09142	-0.1421	0.00460163	-0.0521032	0.530428	-0.276828	0	0	-0.00419976	-0.236229	-0.331009	1.1936	-0.295527	0	0	-0.514046	0.107302	0.0829745	0.392295	-0.762599	1.25616	1.12156	0.358127	0	0	0.0281232	-0.39691	0.343516	0.839927	1.06894	0	0
0.55	-3.06945	1.29656	-1.55263	0.739781	0.231282	1.0928	-0.156724	-0.00305244	-0.0626868	0.523877	-0.278339	0	0	0.0106795	-0.226828	-0.332702	1.16656	-0.286651	0	0	-0.517678	0.100284	0.0860399	0.395467	-0.76129	1.25654	1.11777	0.358074	0	0	0.0344452	-0.396518	0.347822	0.837241	1.0679	0	0
0.56	-3.052	1.29634	-1.57288	0.739186	0.24085	1.09394	-0.170256	-0.0105973	-0.0712689	0.518247	-0.279238	0	0	0.0246749	-0.216456	-0.334194	1.1351	-0.278514	0	0	-0.520614	0.093509	0.0883466	0.398873	-0.759767	1.2573	1.11365	0.358544	0	0	0.0400094	-0.395744	0.351231	0.834485	1.06629	0	0
0.57	-3.03537	1.29655	-1.59188	0.738464	0.250399	1.09483	-0.18325	-0.0172634	-0.0778245	0.512653	-0.279219	0	0	0.0378046	-0.205416	-0.334799	1.10003	-0.269817	0	0	-0.522966	0.0871732	0.0897832	0.402675	-0.758046	1.2586	1.10947	0.359422	0	0	0.0446917	-0.395173	0.35399	0.832307	1.06363	0	0
0.58	-3.01997	1.2972	-1.60928	0.73764	0.259915	1.09548	-0.195333	-0.0232231	-0.0826311	0.507097	-0.278524	0	0	0.050026	-0.193755	-0.333898	1.06174	-0.261363	0	0	-0.524754	0.0813485	0.0906335	0.406999	-0.756249	1.26078	1.10543	0.360213	0	0	0.0486696	-0.394802	0.355998	0.830929	1.06117	0	0
0.59	-3.00509	1.29818	-1.62582	0.736732	0.26938	1.09589	-0.206558	-0.0286578	-0.0865207	0.502351	-0.277745	0	0	0.061007	-0.18115	-0.331104	1.02006	-0.252705	0	0	-0.526273	0.0758199	0.0908598	0.41138	-0.754622	1.26246	1.10206	0.360742	0	0	0.0519879	-0.394758	0.357216	0.830565	1.05964	0	0
0.6	-2.9901	1.29932	-1.64208	0.735729	0.278803	1.09607	-0.217304	-0.0337166	-0.0891398	0.498192	-0.277177	0	0	0.0704143	-0.167217	-0.325829	0.975082	-0.243442	0	0	-0.527736	0.0704078	0.0903778	0.415941	-0.753246	1.26385	1.09954	0.36157	0	0	0.0546203	-0.395121	0.357455	0.831437	1.05855	0	0
0.61	-2.97519	1.30057	-1.65792	0.734648	0.2882	1.09603	-0.227343	-0.0386755	-0.0907269	0.494898	-0.275766	0	0	0.077829	-0.152127	-0.318237	0.926726	-0.234036	0	0	-0.529113	0.0651165	0.0893264	0.420374	-0.75184	1.26476	1.09735	0.362576	0	0	0.0567349	-0.396126	0.357453	0.833521	1.05776	0	0
0.62	-2.96062	1.30171	-1.673	0.733483	0.297573	1.09581	-0.237276	-0.0432923	-0.0921459	0.49275	-0.272605	0	0	0.0829872	-0.135909	-0.307983	0.87434	-0.22584	0	0	-0.530601	0.0600616	0.0878186	0.424955	-0.750399	1.26611	1.09534	0.363935	0	0	0.0586389	-0.397592	0.35759	0.83627	1.0568	0	0
0.63	-2.9467	1.30289	-1.68722	0.732214	0.30691	1.09542	-0.247333	-0.0474449	-0.0912469	0.489644	-0.269347	0	0	0.0857394	-0.11877	-0.294767	0.817158	-0.219536	0	0	-0.532066	0.0553684	0.0861133	0.429818	-0.749097	1.26833	1.09346	0.365166	0	0	0.0605784	-0.398996	0.35782	0.838613	1.05509	0	0
0.64	-2.93428	1.30415	-1.69992	0.730858	0.316284	1.09483	-0.256875	-0.051307	-0.0893052	0.486988	-0.26617	0	0	0.0859446	-0.101534	-0.278663	0.755179	-0.214499	0	0	-0.533313	0.051208	0.0843722	0.434212	-0.747665	1.27025	1.09137	0.366017	0	0	0.0621029	-0.400321	0.358008	0.840879	1.05318	0	0
0.65	-2.92361	1.30574	-1.71064	0.72936	0.325714	1.094	-0.265828	-0.0545308	-0.0874866	0.485269	-0.262095	0	0	0.0840767	-0.0849846	-0.259611	0.688953	-0.21126	0	0	-0.534127	0.0478383	0.0825568	0.438185	-0.74672	1.27205	1.08996	0.367181	0	0	0.0630949	-0.401611	0.358083	0.843546	1.05055	0	0
0.66	-2.91577	1.30785	-1.7185	0.727751	0.335262	1.0929	-0.273478	-0.0571723	-0.0870066	0.485833	-0.257503	0	0	0.0805088	-0.0701485	-0.238299	0.619143	-0.212156	0	0	-0.534253	0.0454775	0.0810923	0.441145	-0.746549	1.27274	1.08957	0.368785	0	0	0.0633282	-0.402812	0.357871	0.846818	1.04724	0	0
0.67	-2.91085	1.3109	-1.72357	0.726018	0.34493	1.0915	-0.279433	-0.0593355	-0.0860659	0.48784	-0.253053	0	0	0.07626	-0.0573716	-0.215349	0.546881	-0.219523	0	0	-0.533189	0.0441922	0.0802578	0.443069	-0.74727	1.27229	1.09022	0.370203	0	0	0.0628239	-0.40373	0.357159	0.850545	1.04419	0	0
0.68	-2.90845	1.31515	-1.72615	0.724152	0.354742	1.0898	-0.283696	-0.0608531	-0.0848262	0.490921	-0.24881	0	0	0.0722513	-0.0466777	-0.191089	0.47377	-0.232139	0	0	-0.530597	0.0438979	0.0799274	0.443966	-0.748674	1.27075	1.09165	0.371637	0	0	0.0615543	-0.404479	0.356103	0.854701	1.04248	0	0
0.69	-2.90836	1.32044	-1.72658	0.722204	0.364741	1.08786	-0.286442	-0.0617993	-0.0839869	0.495311	-0.245004	0	0	0.0683995	-0.0381405	-0.16679	0.401352	-0.241809	0	0	-0.526497	0.0443875	0.0801335	0.444301	-0.750535	1.26926	1.09359	0.373091	0	0	0.0594601	-0.404849	0.354433	0.858953	1.04258	0	0
0.7	-2.91045	1.32595	-1.72522	0.720197	0.374948	1.08579	-0.28868	-0.0626669	-0.0839777	0.500488	-0.241121	0	0	0.0630143	-0.0315117	-0.143515	0.328398	-0.250353	0	0	-0.521797	0.045371	0.0809349	0.443404	-0.752738	1.26667	1.09591	0.375244	0	0	0.0566555	-0.405034	0.352504	0.863309	1.04416	0	0
0.71	-2.91522	1.33184	-1.72164	0.71814	0.385362	1.08358	-0.290662	-0.0631929	-0.0840348	0.505417	-0.237613	0	0	0.0565869	-0.026937	-0.122716	0.256404	-0.255378	0	0	-0.516329	0.0469076	0.0825339	0.441318	-0.755094	1.26359	1.0982	0.378162	0	0	0.0538127	-0.404717	0.35079	0.866962	1.04623	0	0
0.72	-2.9212	1.33828	-1.71691	0.715997	0.395925	1.08125	-0.291868	-0.0637996	-0.0850828	0.510921	-0.234885	0	0	0.049697	-0.023858	-0.105861	0.185589	-0.260269	0	0	-0.509916	0.0487534	0.0843942	0.438665	-0.756958	1.26118	1.09947	0.382002	0	0	0.0511319	-0.403895	0.349544	0.86931	1.04779	0	0
0.73	-2.92896	1.34493	-1.71045	0.713768	0.4067	1.0788	-0.29283	-0.064428	-0.0873568	0.516932	-0.23286	0	0	0.0422415	-0.0220178	-0.0928048	0.11672	-0.267109	0	0	-0.502716	0.0509445	0.0864034	0.435364	-0.758306	1.25953	1.09997	0.386932	0	0	0.0480555	-0.40283	0.348775	0.870763	1.04926	0	0
0.74	-2.93812	1.3518	-1.70262	0.71141	0.4177	1.07623	-0.293519	-0.0652126	-0.0905363	0.52336	-0.231358	0	0	0.0349329	-0.021132	-0.082446	0.0511267	-0.276454	0	0	-0.494663	0.053386	0.0884372	0.430168	-0.759626	1.25562	1.10034	0.390776	0	0	0.0443105	-0.401533	0.347949	0.871949	1.05031	0	0
0.75	-2.94836	1.35876	-1.69371	0.708943	0.428853	1.07358	-0.294516	-0.0659014	-0.0940799	0.529177	-0.23047	0	0	0.0290662	-0.0215504	-0.0742154	0	-0.28266	0	0	-0.486193	0.0558779	0.0904531	0.424358	-0.761024	1.25114	1.1009	0.392965	0	0	0.039924	-0.400406	0.346932	0.873774	1.05071	0	0
0.76	-2.95932	1.36702	-1.6835	0.706383	0.440112	1.07077	-0.29378	-0.0663833	-0.0984116	0.536032	-0.229582	0	0	0.0305179	-0.0237361	-0.0706404	0	-0.279044	0	0	-0.475858	0.0585602	0.0921252	0.416478	-0.762	1.24396	1.10131	0.397425	0	0	0.035191	-0.399553	0.345999	0.875611	1.05142	0	0
0.77	-2.97047	1.37442	-1.6734	0.703877	0.451517	1.0681	-0.294041	-0.0670717	-0.101854	0.542432	-0.2297	0	0	0.0327833	-0.0266163	-0.0676585	0	-0.264626	0	0	-0.466226	0.0605895	0.0939089	0.407706	-0.762769	1.2352	1.10202	0.404888	0	0	0.0299466	-0.399314	0.344581	0.87844	1.05213	0	0
0.78	-2.98039	1.37984	-1.66508	0.701456	0.463046	1.06575	-0.2967	-0.0683625	-0.104031	0.547823	-0.231511	0	0	0.0347189	-0.0290329	-0.0674071	0	-0.252635	0	0	-0.458696	0.0615045	0.0958904	0.399262	-0.763414	1.22667	1.10304	0.411161	0	0	0.0246101	-0.400062	0.343318	0.882509	1.05315	0	0
0.79	-2.98679	1.38308	-1.6609	0.699118	0.474666	1.06378	-0.301959	-0.0705762	-0.104985	0.552312	-0.23441	0	0	0.0362606	-0.030418	-0.0687856	0	-0.246064	0	0	-0.453524	0.0608303	0.098015	0.391747	-0.763416	1.21952	1.10353	0.416672	0	0	0.0192966	-0.401577	0.342134	0.887417	1.05451	0	0
0.8	-2.98928	1.38429	-1.66095	0.696785	0.486399	1.06215	-0.309649	-0.0735692	-0.105574	0.556384	-0.237914	0	0	0.0369205	-0.0306553	-0.0696261	0	-0.245683	0	0	-0.4505	0.0587475	0.100139	0.384874	-0.762853	1.21346	1.10343	0.420537	0	0	0.0140182	-0.403407	0.34079	0.892727	1.05559	0	0
0.81	-2.98951	1.38409	-1.66348	0.694382	0.498276	1.06076	-0.318494	-0.0775642	-0.105239	0.560286	-0.243143	0	0	0.0364982	-0.0300905	-0.0688636	0	-0.249432	0	0	-0.448788	0.0559237	0.102365	0.377666	-0.762123	1.2072	1.10319	0.424032	0	0	0.00887766	-0.405258	0.339519	0.897926	1.05666	0	0
0.82	-2.9886	1.38249	-1.66743	0.691882	0.510324	1.05958	-0.328593	-0.08229	-0.103892	0.564105	-0.250579	0	0	0.0345431	-0.0290954	-0.0671765	0	-0.253933	0	0	-0.448314	0.0527166	0.10484	0.36957	-0.761621	1.19971	1.1033	0.428038	0	0	0.00352658	-0.407079	0.338242	0.903387	1.0575	0	0
0.83	-2.98657	1.37928	-1.67278	0.689248	0.522566	1.0586	-0.340155	-0.0879399	-0.101703	0.567666	-0.261901	0	0	0.0301312	-0.0272354	-0.0653484	0	-0.255579	0	0	-0.449209	0.0491226	0.107569	0.360335	-0.761566	1.19072	1.10409	0.434077	0	0	-0.00223254	-0.40893	0.337067	0.9096	1.05799	0	0
